<svg xmlns="http://www.w3.org/2000/svg" width="64" height="64"><path d="M32 6C17.641 6 6 17.641 6 32s11.641 26 26 26 26-11.641 26-26S46.359 6 32 6zm.646 27.909c0 5.427-3.257 10.015-9.142 10.015-5.664 0-9.44-4.961-9.44-11.44 0-7.069 3.924-11.191 9.44-11.191 3.886 0 6.181 1.333 7.995 4.093l-3.11 1.799c-1.073-1.706-2.369-2.357-4.589-2.357-3.703 0-5.849 2.324-5.849 7.657 0 4.589 2.073 7.999 5.553 7.999 3.257 0 4.701-1.798 4.701-4.744h-4.331v-3.317h8.773v1.486zm11.624.124v6.449h-2.821v-6.449H35v-2.821h6.449v-6.418h2.821v6.418h6.419v2.821H44.27z"/></svg>