<svg xmlns="http://www.w3.org/2000/svg" width="30" height="30"><path d="M15 2C7.832 2 2 7.832 2 15s5.832 13 13 13 13-5.832 13-13S22.168 2 15 2zm-3.334 4h6.666A5.674 5.674 0 0124 11.666v6.666A5.674 5.674 0 0118.334 24h-6.666A5.674 5.674 0 016 18.334v-6.666A5.674 5.674 0 0111.666 6zm0 2A3.672 3.672 0 008 11.668v6.666A3.672 3.672 0 0011.668 22h6.666A3.672 3.672 0 0022 18.332v-6.666A3.672 3.672 0 0018.332 8h-6.666zm8.002 1.666a.666.666 0 110 1.332.666.666 0 010-1.332zM15 10c2.757 0 5 2.243 5 5s-2.243 5-5 5-5-2.243-5-5 2.243-5 5-5zm0 2a3 3 0 000 6 3 3 0 000-6z"/></svg>