<svg xmlns="http://www.w3.org/2000/svg" width="18.073" height="24.75"><path d="M3.174 15.696C-2.212 6.368.666 2.251 1.683 1.496l3.926 6.6c-.946.557-.492 1.81.07 3.036.009.058 2.73 4.621 2.753 4.637 1.407 1.9 2.169 2.772 3.073 2.241l3.826 6.445a2.858 2.858 0 01-1.415.3c-2.208-.006-6.395-1.526-10.742-9.059zm8.821 2.014l1.83-1.079a.837.837 0 011.143.292l2.99 5.023a.83.83 0 01-.291 1.145l-1.83 1.076zM2.188 1.195l1.83-1.08a.835.835 0 011.143.293l3.074 5.168v.005a.827.827 0 01-.294 1.14l-1.83 1.076z"/></svg>