<svg xmlns="http://www.w3.org/2000/svg" width="100" height="100"><path fill="#030303" d="M0 0h100v100H0z"/><g fill="none"><path d="M45.317 81h-.067l-16.969-.155a7.214 7.214 0 01-7.134-7.091l-.156-16.864a6.841 6.841 0 012.609-5.468c.135-.159.274-.31.414-.449l27.212-27.045a7.027 7.027 0 019.9 0l17.811 17.7a6.923 6.923 0 010 9.835L51.725 78.508a12.289 12.289 0 01-6.405 2.489zM34.364 62.336a4.883 4.883 0 00-3.464 1.426 4.847 4.847 0 000 6.884 4.918 4.918 0 006.927 0 4.847 4.847 0 000-6.884 4.881 4.881 0 00-3.463-1.422z"/><path d="M45.317 78.004c.565 0 1.107-.112 1.611-.332l.302-.132.324-.063a4.002 4.002 0 002.054-1.09l27.211-27.045a3.908 3.908 0 001.165-2.79 3.908 3.908 0 00-1.165-2.79L59.01 26.06a3.992 3.992 0 00-2.834-1.165 3.992 3.992 0 00-2.833 1.165L26.13 53.105c-.08.08-.161.168-.24.26l-.193.229-.235.185a3.86 3.86 0 00-1.47 3.087l.156 16.864a4.107 4.107 0 001.234 2.886 4.189 4.189 0 002.927 1.233l16.96.155h.048M34.364 59.34c2.107 0 4.088.816 5.579 2.298a7.803 7.803 0 012.319 5.57 7.8 7.8 0 01-2.32 5.569 7.86 7.86 0 01-5.578 2.299 7.865 7.865 0 01-5.579-2.299 7.8 7.8 0 01-2.32-5.568c0-2.105.824-4.084 2.32-5.572a7.865 7.865 0 015.58-2.297m10.952 21.664h-.066l-16.969-.155c-3.898-.035-7.098-3.216-7.134-7.09l-.156-16.865a6.84 6.84 0 012.61-5.468c.134-.158.273-.31.413-.449l27.213-27.045a6.973 6.973 0 014.947-2.037c1.87 0 3.627.724 4.948 2.037l17.811 17.702a6.887 6.887 0 012.05 4.918 6.887 6.887 0 01-2.05 4.918L51.723 78.515a6.988 6.988 0 01-3.593 1.906 6.979 6.979 0 01-2.813.583zM34.364 62.34a4.883 4.883 0 00-3.464 1.425 4.823 4.823 0 00-1.434 3.443c0 1.3.51 2.522 1.434 3.442a4.884 4.884 0 003.464 1.426 4.88 4.88 0 003.463-1.426 4.82 4.82 0 001.435-3.442c0-1.3-.51-2.523-1.435-3.443a4.88 4.88 0 00-3.463-1.425z"/></g><path d="M36.219 73.329s-11.2-10.083-11.2-31.294 4.9-25.035 7-25.035 5.947 4.173 6.3 21.558" fill="none" stroke="#000" stroke-width="3"/><path d="M45.251 81l-16.969-.155a7.215 7.215 0 01-7.134-7.091l-.156-16.864a6.841 6.841 0 012.609-5.468c.135-.159.274-.31.414-.449l1.492-1.483a56.448 56.448 0 01-.484-7.459c0-21.21 4.9-25.035 7-25.035 2.027 0 5.685 3.89 6.249 19.811L51.23 23.929a7.028 7.028 0 019.9 0l17.811 17.7a6.923 6.923 0 010 9.835L51.729 78.509a12.289 12.289 0 01-6.405 2.489zM29.466 67.2a4.818 4.818 0 001.435 3.441 4.885 4.885 0 003.464 1.427 5.01 5.01 0 00.625-.039 36.17 36.17 0 01-4.844-7.307 4.819 4.819 0 00-.68 2.487zm6.853 4.466a4.9 4.9 0 001.509-1.025 4.847 4.847 0 000-6.884 4.923 4.923 0 00-.986-.759z" fill="#fff"/></svg>